<svg width="352" height="733" viewBox="0 0 352 733" fill="none" xmlns="http://www.w3.org/2000/svg">
<path d="M1.71064 286.315C1.71064 275.104 -0.484777 261.235 2.8423 250.405C7.28615 235.94 18.791 218.675 28.8706 207.334C55.4016 177.48 113.135 158.792 145.998 186.705C164.563 202.473 174.088 220.152 173.064 245.057C171.541 282.074 156.719 317.143 154.863 354.313C154.168 368.215 151.926 387.043 157.975 400.059C171.996 430.232 210.516 434.416 239.172 431.002C273.894 426.865 300.17 409.24 323.858 384.11C330.639 376.916 348 361.508 348 349.92" stroke="#0E0E0E" stroke-width="2" stroke-linecap="round"/>
<path d="M87.0001 1.00009C89.6716 23.2624 93.8599 52.5169 121.558 54.8576C143.686 56.7275 165.278 48.0707 186.63 43.8781C201.712 40.9166 221.574 39.0416 236.592 43.0723C251.325 47.0265 264.919 55.0329 277.187 63.8224C284.105 68.7796 291.389 73.2738 297.937 78.7303C304.06 83.8328 309.62 89.3197 316.371 93.6382C327.641 100.848 338.544 106.544 348 116" stroke="#0E0E0E" stroke-width="2" stroke-linecap="round"/>
<path d="M345.5 526C340.903 509.136 336.514 498.77 325.197 485.729C313.832 472.632 290.895 466.945 274.234 465.823C256.71 464.642 242.858 472.855 227.286 480.175C209.03 488.757 198.743 508.103 177.876 512.564C165.309 515.251 151.702 515.514 138.904 515.974C125.992 516.437 118.738 514.682 111.067 503.216C100.433 487.321 98.6778 472.19 97.5771 453.285C96.4291 433.569 94.5008 419.005 76.5388 408.798C61.9453 400.506 38.7415 398.34 25.9506 410.668C15.4005 420.836 9.18752 439.23 7.00006 453.835" stroke="#0E0E0E" stroke-width="2" stroke-linecap="round"/>
<path d="M9.00006 712.5C6.40006 703 9.03689 689.936 10.6001 679.374C12.4842 666.643 15.7248 654.21 17.4517 641.434C19.5806 625.683 25.6453 607.833 35.2775 594.759C37.9355 591.152 40.5085 586.851 43.5001 583.5C47.9337 578.534 51.1719 573.396 55.8323 568.669C69.9841 554.313 95.3108 547.698 115.348 547.084C146.36 546.133 186.455 552.938 198.903 583.911C204.526 597.901 204.947 615.697 202.561 630.419C200.223 644.85 187.109 657.107 176.548 666.801C168.544 674.148 159.55 678.211 148.445 678.706C138.39 679.154 135.675 674.716 135.439 665.355C135.162 654.382 135.025 640.693 138.574 630.141C142.053 619.797 151.94 611.667 160.523 605.162C178.625 591.443 201.297 585.863 222.884 579.239C243.404 572.941 267.578 573.933 282.226 590.921C288.851 598.605 290.83 610.38 289.774 620.071C288.758 629.394 280.941 635.057 274.097 640.822C260.699 652.106 253.912 665.28 256.039 682.6C258.771 704.854 291.325 715.81 310.271 722.376C317.499 724.881 323.857 729.719 331 732" stroke="#0E0E0E" stroke-width="2" stroke-linecap="round"/>
<path d="M7.00006 44.0001C7.58467 54.9045 11.374 60.582 17.1968 69.2557C26.9046 83.7168 35.4542 91.3683 51.8871 99.3393C76.3482 111.204 100.993 111.286 127.451 111.286C158.115 111.286 184.288 112.207 212.343 124.97C222.484 129.583 233.455 132.772 241.165 141.478C249.245 150.603 253.596 162.171 258.143 173.408C266.813 194.832 271.272 217.312 281.829 237.919C290.907 255.64 297.26 276.732 316.624 285.271C326.561 289.653 339.913 297 351 297" stroke="#0E0E0E" stroke-width="2" stroke-linecap="round"/>
</svg>
