<svg width="1443" height="987" viewBox="0 0 1443 987" fill="none" xmlns="http://www.w3.org/2000/svg">
<path d="M510.761 12.0182C520.006 20.4488 548.864 42.4805 568.845 48.0966C586.025 52.9253 631.795 55.3174 694.133 56.9984C752.175 58.5636 771.32 82.4176 788.309 93.4589C825.158 117.408 844.267 143.546 874.385 149.124C917 157.016 950.503 152.919 958.131 158.433C981.769 175.52 1015.02 213.996 1030.29 234.372C1039.43 246.577 1053.17 267.433 1072.24 292.852C1088.78 314.909 1101.62 328.663 1111.78 334.177C1121.09 339.23 1137.22 338.036 1153.77 336.775C1177.76 334.946 1209.25 297.335 1258.54 289.681C1272.16 286.306 1287.29 280.422 1317.78 277.392C1348.27 274.361 1393.66 274.361 1440.42 274.361" stroke="#231F26" stroke-width="3" stroke-linecap="round"/>
<path d="M88.7068 6.29199C88.7068 7.01313 88.7068 7.73427 95.0295 32.2639C101.352 56.7935 113.997 105.11 122.092 131.803C131.443 162.636 138.977 169.422 147.311 178.131C160.467 191.877 189.917 204.343 222.189 217.083C247.523 227.084 282.482 224.819 323.903 222.655C362.754 220.626 391.165 210.265 411.079 206.277C430.158 202.456 466.031 192.805 516.241 187.702C538.71 185.419 555.387 186.926 575.396 192.706C595.406 198.486 618.326 209.303 636.061 219.924C667.241 238.596 687.348 269.792 702.508 301.445C711.502 320.224 711.394 356.372 714.555 403.322C717.536 447.594 771.938 458.599 791.134 466.979C812.094 476.13 841.368 482.659 902.846 485.936C949.245 488.41 1026.76 487.051 1073.77 491.017C1120.79 494.983 1135.01 502.916 1147.48 514.214C1159.94 525.512 1170.22 539.934 1181.44 551.691C1192.66 563.448 1204.51 572.102 1231.96 597.472C1259.41 622.843 1302.08 664.669 1336.32 704.966C1370.56 745.262 1395.06 782.761 1401.75 811.093C1408.44 839.425 1396.59 857.454 1386.93 876.116C1377.26 894.778 1370.15 913.528 1366.48 931.84C1362.82 950.153 1362.82 967.46 1362.82 985.292" stroke="#231F26" stroke-width="3" stroke-linecap="round"/>
<path d="M949.616 12.3478C953.118 27.557 961.394 58.2584 966.974 68.0206C971.499 75.9379 984.916 79.5337 1010.12 82.1865C1028.24 84.0938 1057.5 83.0884 1075.15 84.2556C1098.28 85.7843 1104.64 93.6641 1111.11 98.3949C1122.22 106.53 1126.43 117.822 1132.93 129.317C1139.14 140.305 1140.01 148.488 1142.67 158.799C1145.79 170.941 1155.9 183.257 1165.34 188.89C1175.67 195.054 1188.33 199.209 1200.69 204.506C1220.81 213.124 1251.96 202.216 1272.59 195.407C1284.53 191.465 1316.65 190.968 1350.88 188.032C1367.85 187.431 1398.78 187.431 1416.47 188.014C1434.15 188.598 1437.66 189.765 1441.26 190.968" stroke="#231F26" stroke-width="3" stroke-linecap="round"/>
<path d="M1079 12.0768C1085.93 14.8015 1100.42 19.3076 1112.6 20.4267C1120.05 21.1114 1133.37 23.0203 1142.47 24.5286C1151.56 26.0369 1156.01 27.272 1162.37 29.6374C1177.04 35.0853 1188.01 40.7531 1193.11 44.2375C1197.72 47.3857 1201.73 51.9736 1206.09 57.8159C1211.24 64.7219 1212.24 72.4309 1211.87 77.1654C1211.32 84.0731 1197.09 87.9031 1189.18 88.6816C1179.93 89.5926 1176.07 82.4463 1174.32 80.5825C1172.35 78.4727 1172.56 72.9923 1173.06 66.7645C1173.45 61.8084 1180 57.2657 1191.56 51.7902C1198.45 48.5252 1208.3 46.3147 1216.23 44.9149C1229.94 42.4933 1238.17 44.2562 1242.76 46.6141C1245.51 48.0199 1248.6 50.7011 1253.09 56.0493C1263.97 68.9912 1271.35 80.4178 1276.45 84.9015C1281.88 89.6788 1293.26 90.1711 1306.08 89.6809C1316.96 89.265 1324.49 83.4568 1329.97 79.3511C1334.97 75.6007 1337.23 72.2139 1339.71 69.9832C1344.53 65.6524 1351.17 59.2643 1359.26 54.279C1366.61 51.2699 1374.13 49.5109 1389.87 48.2646C1401.67 47.7593 1421.18 47.5123 1441.29 47.2578" stroke="#231F26" stroke-width="3" stroke-linecap="round"/>
<path d="M261.792 13.2975C265.685 22.0572 272.07 42.1425 281.626 71.8207C290.357 98.9374 302.552 116.467 310.154 126.775C321.872 142.664 341.838 146.492 362.638 149.684C375.561 151.668 393.658 151.417 409.017 150.451C424.376 149.485 436.542 147.052 455.463 139.472C474.383 131.892 499.689 119.239 519.051 112.478C538.414 105.716 551.067 105.23 566.588 106.926C600.377 110.618 623.533 118.959 632.61 124.106C640.851 128.779 648.116 135.181 659.619 139.841C675.713 146.361 698.669 146.506 719.049 147C740.713 147.526 754.309 137.201 764.366 127.151C774.763 116.762 781.34 101.351 787.231 89.576C797.64 68.7727 791.707 47.2449 788.028 41.3388C782.243 32.0531 770.088 25.1246 763.459 17.7511C761.727 15.775 760.267 13.8284 758.785 11.3657C757.303 8.90295 755.843 5.98306 751.389 1.5" stroke="#231F26" stroke-width="3" stroke-linecap="round"/>
<path d="M1437.7 358.982C1437.01 358.982 1433.56 357.935 1428.35 355.999C1425.06 354.773 1409.01 348.805 1382.81 340.876C1371.83 337.551 1365.21 336.787 1356 336.422C1346.78 336.057 1335.09 336.406 1324.59 338.157C1292.15 343.569 1286.22 351.577 1283.79 352.275C1281.19 353.022 1280.65 356.856 1279.61 361.235C1277.55 369.911 1280.29 377.654 1282.03 380.822C1284.84 385.956 1293.45 391.396 1302.33 394.062C1310.72 396.581 1317.1 397.405 1325.96 402.509C1335.39 407.945 1339.69 418.88 1341.45 426.482C1342.67 431.781 1338.01 440.039 1332.29 448.491C1327.63 455.383 1312.37 458.055 1292.95 461.747C1277.41 464.7 1269.54 467.946 1267.11 468.993C1259.34 472.347 1263.62 492.532 1268.29 505.639C1272.67 517.967 1290.97 524.332 1303.02 527.009C1315.55 529.792 1332.02 511.362 1346.07 502.016C1351.21 498.602 1359.02 495.177 1370.14 490.58C1381.26 485.983 1395.71 480.747 1405.9 478.049C1421.31 473.972 1428.65 475.701 1431.42 476.753C1432.82 477.457 1434.19 478.504 1435.59 479.393C1436.99 480.281 1438.36 480.979 1440.82 481.699" stroke="#231F26" stroke-width="3" stroke-linecap="round"/>
<path d="M779.182 248.248C782.966 251.52 792.119 260.177 802.897 262.481C814.38 264.935 826.428 262.237 834.3 261.222C839.705 260.526 844.75 259.689 849.83 259.941C856.543 260.274 864.567 268.308 870.444 273.778C873.43 276.556 874.01 283.8 875.535 291.794C876.802 298.43 876.809 305.921 879.464 313.537C881.918 320.578 892.782 322.229 901.923 323.247C908.007 323.925 916.672 320.734 927.213 316.672C933.715 314.167 940.081 308.796 948.079 302.072C954.413 296.747 958.41 288.217 961.843 279.834C963.736 275.21 962.506 269.895 960.988 263.045C959.511 256.377 953.887 249.056 948.555 241.31C944.997 236.141 937.64 230.239 928.117 223.378C922.368 219.235 916.26 219.262 908.407 218.507C903.786 218.063 898.037 216.242 888.636 215.338C879.235 214.434 866.397 214.182 857.896 213.549C845.545 212.629 839.212 209.362 831.623 205.311C819.267 198.718 809.205 194.358 805.147 192.074C798.051 188.079 784.873 188.752 774.503 190.903C772.101 191.401 769.289 195.334 765.857 200.788C760.445 209.387 763.927 219.979 765.697 230.41C767.148 238.967 772.806 241.367 777.386 245.181C778.412 246.203 779.167 247.21 780.06 248.358C780.952 249.506 781.959 250.765 783.759 252.824" stroke="#231F26" stroke-width="3" stroke-linecap="round"/>
<path d="M4.82397 707.801C7.46954 705.438 20.076 692.995 40.0881 671.261C68.3341 640.585 64.9504 617.786 71.2637 606.982C79.0439 593.667 91.6465 586.098 98.6613 578.338C108.139 567.852 121.63 553.301 137.383 543.427C150.987 534.901 161.794 532.39 185.093 516.905C210.155 500.247 226.57 494.186 237.273 490.892C250.985 486.672 267.977 481.046 289.673 470.931C297.906 467.092 305.416 460.207 312.09 449.483C329.111 422.135 314.836 376.637 311.148 367.391C306.78 356.439 300.125 346.239 297.78 333.689C295.921 323.743 298.101 314.569 300.425 308.616C305.385 295.918 324.055 287.16 347.124 274.297C366.194 263.663 384.903 264.423 400.927 257.576C416.091 251.095 448.878 249.493 474.742 258.999C488.626 264.102 501.107 271.549 510.196 277.519C517.446 282.281 527.202 288.843 536.241 293.632C549.887 300.862 553.297 313.906 556.965 324.344C561.435 337.064 571.976 348.494 578.34 358.654C593.237 382.438 585.364 414.161 592.008 422.513C600.958 433.763 622.703 434.481 642.014 437.739C666.291 441.835 688.822 450.002 710.147 451.184C731.796 452.384 754.28 461.299 778.27 468.156C801.495 474.794 824.447 475.639 852.045 483.946C869.944 489.333 894.855 499.342 914.086 511.006C933.316 522.669 945.882 536.257 957.647 545.916C978.216 562.802 1001.48 576.413 1028.76 596.357C1044.26 607.694 1067.94 615.709 1084.81 625.896C1114.66 643.91 1133.76 665.354 1152.11 680.24C1160.4 686.965 1164.5 693.944 1162.26 702.018C1156.78 721.736 1136.58 736.373 1129.57 750.069C1126.34 756.381 1127.18 762.583 1130.16 767.399C1142.18 786.841 1167.81 791.907 1211.65 802.3C1242.78 809.678 1292.53 819.191 1329.33 846.52C1366.13 873.848 1388.61 918.157 1403.5 944.528C1418.4 970.898 1425.01 977.988 1431.82 985.292" stroke="#231F26" stroke-width="3" stroke-linecap="round"/>
<path d="M4.58628 684.416C12.2557 663.461 21.5608 631.487 23.8601 623.748C27.2752 612.253 42.0537 584.359 50.3327 562.308C55.1116 549.579 71.898 539.932 83.7185 530.172C101.447 515.533 126.926 501.832 140.336 496.431C152.849 491.392 165.011 484.858 184.03 474.333C196.708 467.318 203.62 462.76 215.179 453.748C224.809 446.239 235.502 435.508 246.041 422.152C263.262 400.33 258.68 389.708 256.913 362.787C256.03 349.335 243.279 345.96 238.411 344.679C231.987 342.989 204.917 341.839 167.388 341.585C143.417 341.422 135.29 337.735 126.78 333.884C119.116 330.417 116.217 322.334 112.622 314.356C103.371 293.831 112.575 261.164 115.43 246.743C117.91 234.214 114.165 224.576 111.086 221.752C104.15 215.39 90.0454 210.179 56.9219 210.402C41.0661 210.51 34.4615 223.481 26.9927 235.316C16.5692 251.835 11.2835 272.336 8.9688 282.907C5.62018 291.919 3.56781 300.144 1.76233 310.421C1.5 313.014 1.5 315.05 1.5 317.149" stroke="#231F26" stroke-width="3" stroke-linecap="round"/>
<path d="M953.52 983.085C958.39 974.406 978.982 955.955 1006.7 936.646C1031.57 919.321 1052.07 914.999 1062.94 912.286C1074.11 909.498 1086.91 904.115 1100.24 898.419C1119.52 890.18 1114.76 869.304 1114.78 852.127C1114.79 841.496 1107.18 831.159 1102.8 822.407C1098.58 813.985 1097.9 806.611 1093.55 798.17C1085.92 783.35 1074.49 761.471 1061.16 744.523C1052.98 734.115 1031.51 730.877 1020.29 727.053C1010.17 723.605 973.981 724.863 950.562 722.967C940.915 722.186 920.997 710.775 905.888 701.467C893.569 693.879 885.467 681.88 881.348 672.597C876.133 660.843 874.026 625.398 869.099 601.267C864.706 579.752 849.512 572.904 841.054 565.272C834.347 559.219 822.284 555.482 808.662 551.364C796.185 547.591 771.195 546.722 744.948 555.67C730.319 560.657 720.401 576.63 711.126 605.713C707.818 616.086 707.833 624.581 707.016 638.129C705.615 661.345 709.974 680.687 722.158 694.244C743.277 717.743 766.603 731.367 780.715 737.349C813.629 751.3 833.071 747.187 849.12 758.301C875.465 776.544 878.308 788.029 883.481 794.002C888.374 799.653 886.513 819.506 883.546 844.535C879.816 876.011 857.128 886.039 850.313 892.364C842.911 899.232 834.803 904.049 827.162 911.412C820.515 917.817 818.966 926.407 818.149 932.372C817.631 936.155 817.871 941.573 820.298 945.7C829.243 960.909 843.432 960.172 852.707 966.987C854.905 971.056 856.539 974.897 858.983 978.157C860.347 979.8 861.965 981.418 863.632 983.085" stroke="#231F26" stroke-width="3" stroke-linecap="round"/>
<path d="M404.208 979.114C403.249 977.197 400.838 956.076 398.172 917.901C396.914 899.888 397.903 884.52 398.869 872.783C400.473 853.293 408.028 833.01 418.175 811.25C422.61 801.737 427.362 796.201 439.651 782.931C451.941 769.662 472.074 749.049 486.52 736.034C507.895 716.776 520.867 710.41 527.389 705.572C532.78 701.574 542.148 696.392 552.541 687.204C560.174 680.457 574.062 663.563 589.794 639.609C601.36 621.998 600.311 594.346 592.619 570.058C585.617 547.946 568.862 534.658 563.552 526.443C558.348 518.39 550.951 513.813 539.882 509.23C519.151 500.646 499.644 499.272 489.985 497.827C472.171 495.161 460.918 490.571 448.316 483.802C437.285 477.876 428.466 466.893 421.9 454.277C417.979 446.742 402.377 439.758 391.163 438.727C378.723 437.583 379.048 460.473 378.78 487.535C378.711 494.414 380.937 499.17 383.355 503.078C393.624 519.667 427.333 514.742 442.898 516.209C453.327 517.192 469.459 521.511 493.602 530.903C522.388 542.1 535.408 558.815 539.511 561.466C553.757 570.668 558.156 600.359 563.487 613.723C565.492 618.75 568.295 627.407 570.496 660.854C572.696 694.3 574.135 752.303 575.834 783.382C577.673 817.002 583.824 826.038 587.934 840.041C592.216 854.624 593.512 865.781 597.137 873.734C602.388 885.258 604.639 899.162 611.873 911.713C620.688 927.005 630.787 938.877 635.384 948.057C637.585 956.279 637.666 947.9 640.324 970.292C641.544 985.973 640.577 959.104 641.564 984.292" stroke="#231F26" stroke-width="3" stroke-linecap="round"/>
<path d="M4.8457 768.703C9.46762 769.164 26.154 770.1 50.1432 760.367C64.4653 754.557 81.5331 734.856 89.0804 722.882C93.059 716.57 99.2947 711.481 105.362 703.571C110.809 696.469 116.526 689.14 122.572 681.704C139.244 661.201 166.291 658.392 176.324 656.772C192.821 654.109 208.657 655.125 218.913 658.378C231.13 662.254 246.777 668.138 269.14 675.588C278.147 678.589 297.925 677.941 323.039 677.48C345.682 677.065 364.07 670.065 377.391 664.473C387.785 660.11 393.924 643.577 399.51 629.634C403.388 619.952 400.026 612.34 396.78 606.999C393.446 601.515 386.091 598.824 376.582 596.275C364.556 593.053 345.68 589.971 323.143 591.584C305.064 592.878 295.775 601.589 290.902 605.994C285.063 611.272 278.111 627.086 269.517 648.003C263.373 662.955 258.52 671.853 258.053 685.502C257.159 711.581 261.285 735.582 268.001 749.748C271.472 757.068 278.865 762.532 284.262 772.99C289.659 783.449 293.806 798.194 296.634 817.771C299.461 837.348 300.844 861.309 300.865 878.031C300.885 894.752 299.503 903.507 298.791 925.758C298.079 948.009 298.824 946.736 298.824 983.292" stroke="#231F26" stroke-width="3" stroke-linecap="round"/>
</svg>
